PathFileType	4	(X/Y/Z)	 s11c0303.trc
DataRate	CameraRate	NumFrames	NumMarkers	Units	OrigDataRate	OrigDataStartFrame	OrigNumFrames
200	200	4	48	mm	200	1751	2000
Frame#	Time	racr			lacr			c7			jug			rlel			rdr			llel			ldr			s2			lic			ric			lasi			rasi			rpsi			lpsi			rgt			lgt			rth1			rth2			rth3			rth4			rlfc			rmfc			rsh1			rsh2			rsh3			rsh4			rlmal			rcal			rtoe			rmt5			lth1			lth2			lth4			lth3			llfc			lmfc			llmal			lcal			lmt5			lsh1			lsh2			lsh3			lsh4			ltoe			SBIKE			LBIKE			RBIKE			
		X1	Y1	Z1	X2	Y2	Z2	X3	Y3	Z3	X4	Y4	Z4	X5	Y5	Z5	X6	Y6	Z6	X7	Y7	Z7	X8	Y8	Z8	X9	Y9	Z9	X10	Y10	Z10	X11	Y11	Z11	X12	Y12	Z12	X13	Y13	Z13	X14	Y14	Z14	X15	Y15	Z15	X16	Y16	Z16	X17	Y17	Z17	X18	Y18	Z18	X19	Y19	Z19	X20	Y20	Z20	X21	Y21	Z21	X22	Y22	Z22	X23	Y23	Z23	X24	Y24	Z24	X25	Y25	Z25	X26	Y26	Z26	X27	Y27	Z27	X28	Y28	Z28	X29	Y29	Z29	X30	Y30	Z30	X31	Y31	Z31	X32	Y32	Z32	X33	Y33	Z33	X34	Y34	Z34	X35	Y35	Z35	X36	Y36	Z36	X37	Y37	Z37	X38	Y38	Z38	X39	Y39	Z39	X40	Y40	Z40	X41	Y41	Z41	X42	Y42	Z42	X43	Y43	Z43	X44	Y44	Z44	X45	Y45	Z45	X46	Y46	Z46	X47	Y47	Z47	X48	Y48	Z48	
1751	8.7550	867.982440	1327.265496	-61.101243	884.326649	1276.897070	-401.079608	868.730286	1398.722376	-244.875758	830.092032	1217.964887	-234.849662	688.057854	1138.078849	86.025005	805.054136	931.686161	-28.942916	660.393897	1130.873509	-586.850919	813.029458	923.742586	-450.075652	245.088310	1277.765672	-248.740846	460.991124	1224.316586	-449.631317	473.107455	1277.230466	-54.459199	475.597327	1154.553848	-407.237368	485.364576	1199.161954	-85.681323	304.128037	1355.410967	-206.609677	303.519614	1337.127258	-298.641052	406.123323	1152.614989	-21.340495	328.602621	1123.226185	-439.940867	509.818737	1060.871663	-14.417696	586.019525	1014.901291	-26.845754	628.534510	938.002854	-30.996828	606.777343	1038.307421	-46.631116	690.367553	849.258818	-44.925492	683.190849	825.816555	-177.353321	555.537231	756.566569	-37.506761	494.966265	696.668942	-60.147508	411.123575	673.017081	-65.580820	512.004935	675.447021	-88.436361	292.124970	618.128391	-82.206661	255.942851	668.409730	-130.810711	331.654723	391.241744	-138.522213	280.088617	443.486860	-69.443033	354.944382	984.130288	-450.595547	382.167204	904.298492	-439.242806	418.652440	905.961734	-433.456478	364.495022	816.505476	-429.247493	373.741710	677.839292	-401.968194	368.847694	667.793196	-273.455693	200.380525	280.745518	-403.668909	135.861838	267.014644	-374.514867	306.642128	145.507249	-441.928422	317.652253	565.238461	-427.782194	310.138911	480.802430	-417.221377	261.153808	407.128056	-417.804978	340.342095	473.909039	-394.902445	403.305804	130.751111	-371.979300	-204.656536	950.363987	-262.763043	1.350574	82.301505	-460.841105	-15.283634	81.250420	-62.395842	
1752	8.7600	866.176813	1327.875612	-56.657174	886.152612	1279.252377	-397.235638	868.694399	1398.809792	-240.730566	830.603729	1217.837245	-232.904720	685.721024	1136.814998	87.879328	804.783282	931.881971	-28.669122	665.321392	1132.618382	-586.294515	814.331874	923.620843	-448.895460	245.367149	1277.340558	-252.894692	464.574548	1223.461814	-448.968584	469.935229	1277.826663	-53.869298	478.586217	1154.875436	-405.991958	482.836500	1200.013317	-86.111666	303.111574	1355.198594	-210.050621	304.534275	1336.704587	-302.099802	404.614365	1154.438594	-22.192048	330.409182	1122.163085	-441.230580	510.276124	1064.129969	-14.389472	587.264646	1019.179276	-26.665820	630.521356	943.278405	-29.403423	607.896806	1043.224036	-45.720456	695.068529	855.514561	-43.154187	689.776782	831.565521	-175.727185	562.533141	761.718390	-37.164097	502.359727	701.761683	-59.046120	418.463238	677.203427	-64.872541	519.332020	680.397643	-87.204770	300.189173	619.848529	-82.021853	262.944418	669.742883	-130.524394	343.249757	393.635679	-138.831839	291.137788	445.601255	-68.985236	354.802236	984.234337	-451.435906	380.552675	904.091824	-440.228947	416.949814	905.236437	-433.535642	361.678949	816.849668	-430.990786	367.259570	677.401044	-403.306146	361.186642	667.970859	-273.527002	192.049966	280.792975	-404.216738	127.709011	268.433812	-374.806076	296.429273	144.037127	-442.192966	309.442673	565.194623	-428.952256	301.564921	480.721189	-418.410390	252.152602	407.412577	-418.666494	330.842115	472.395578	-395.044606	392.855333	127.866316	-372.270656	-204.719709	950.340944	-262.720452	1.359601	82.360107	-460.894814	-15.279166	81.255883	-62.373853	
1753	8.7650	864.437654	1327.949348	-52.862244	887.869538	1281.352436	-393.423103	868.726785	1398.855924	-236.804029	830.979713	1217.746551	-230.950769	683.320580	1135.387596	89.604837	804.430629	932.068150	-28.378774	670.036430	1134.408273	-585.579485	815.527137	923.702892	-447.720133	245.678161	1277.082436	-256.920812	468.253673	1222.730769	-448.042301	466.680780	1278.452772	-53.257907	481.539210	1155.284917	-404.352122	480.671576	1201.882291	-86.680859	302.220764	1355.086810	-213.327286	305.492489	1336.633430	-305.637225	403.134403	1156.532181	-22.525700	332.237056	1121.338826	-442.430372	509.972953	1067.175887	-13.866351	588.244574	1022.942338	-26.960854	632.473750	948.328793	-28.681953	608.578729	1047.875118	-44.536602	699.175708	861.725852	-41.501794	697.601604	837.228786	-171.930001	569.347718	766.678559	-36.476980	508.827313	706.082527	-58.577768	425.950777	680.729687	-64.269307	526.920846	684.934207	-86.061236	308.203960	620.970360	-81.799835	269.673463	670.481971	-130.448520	355.294216	396.024181	-138.424054	302.278500	447.008705	-68.576112	354.908179	985.079452	-452.721834	379.301800	904.413465	-441.553327	415.532098	905.021537	-433.908264	358.923063	817.415470	-432.625034	361.335695	677.421052	-404.600636	354.951496	668.520028	-274.161907	183.858166	281.365328	-404.735627	119.831780	270.708457	-375.239949	286.119366	143.304464	-442.618109	301.836487	565.702683	-430.485773	293.545295	481.356112	-419.969280	243.627053	408.262653	-419.707416	322.922735	472.440250	-396.405293	382.373339	125.561837	-372.730709	-204.788727	950.353190	-262.683604	1.322837	82.477710	-460.813181	-15.273714	81.248582	-62.378123	
1754	8.7700	862.542280	1327.794261	-48.960587	890.079671	1283.535389	-389.569955	868.759996	1398.737749	-232.686611	831.773668	1217.421414	-229.135653	680.772835	1133.828958	91.268433	803.949378	932.203427	-28.244514	674.353642	1135.939695	-584.467520	816.580691	924.028708	-446.780099	245.849688	1277.178488	-260.852295	471.819831	1222.298029	-446.905029	463.269304	1279.144566	-52.570431	484.397272	1155.828436	-402.522209	478.396289	1203.859117	-87.112273	301.540857	1354.991159	-215.786707	306.693590	1336.779482	-309.134527	401.700322	1159.071199	-22.656727	334.092428	1120.970778	-443.603962	509.449629	1069.874694	-13.202114	588.250957	1027.461609	-25.067795	634.031540	953.087734	-28.139564	608.001893	1052.322291	-42.976870	703.156458	868.069298	-41.230965	703.252686	843.319682	-171.785713	575.715654	771.675203	-35.554768	516.084651	710.138715	-57.839620	433.619276	683.677698	-63.549317	534.508705	689.335532	-85.148576	316.214202	621.546609	-81.646262	276.152514	670.712865	-130.706143	367.357053	397.758664	-138.055790	313.422707	447.879846	-68.189485	355.167158	986.192368	-454.238066	378.302943	905.201112	-442.943880	414.453603	905.258181	-434.678760	356.590564	818.477566	-434.145462	356.137422	677.926303	-406.358134	350.268855	669.478356	-275.336931	175.886884	282.847150	-405.431699	112.168073	273.918997	-375.765473	275.896726	143.081726	-443.025925	295.016714	566.889773	-432.196009	286.197759	482.571314	-421.706640	235.704634	409.845724	-420.937849	315.986542	473.549211	-399.051090	371.869050	123.880620	-373.197364	-204.814552	950.364009	-262.606678	1.353142	82.396917	-460.890061	-15.278743	81.281130	-62.382787	
